<svg xmlns="http://www.w3.org/2000/svg" width="1078" height="753" viewBox="0 0 1078 753">
<defs><marker id="head" viewBox="0 0 10 10" refX="9" refY="5" markerWidth="7" markerHeight="7" orient="auto-start-reverse"><path d="M0,0 L10,5 L0,10 z" fill="#333"/></marker></defs>
<rect width="1078" height="753" fill="#ffffff"/>
<rect x="20" y="190" width="968" height="54" fill="#f6efe0" stroke="#ffffff" stroke-width="2"/>
<text x="28" y="221.0" font-family="Helvetica, Arial, sans-serif" font-size="11" text-anchor="start" font-weight="bold" fill="#b08a3e">Data</text>
<rect x="20" y="244" width="968" height="81" fill="#e6eef8" stroke="#ffffff" stroke-width="2"/>
<text x="28" y="288.5" font-family="Helvetica, Arial, sans-serif" font-size="11" text-anchor="start" font-weight="bold" fill="#3d6ea8">Network</text>
<rect x="20" y="325" width="968" height="54" fill="#e7f3ea" stroke="#ffffff" stroke-width="2"/>
<text x="28" y="356.0" font-family="Helvetica, Arial, sans-serif" font-size="11" text-anchor="start" font-weight="bold" fill="#3f8a55">Sample</text>
<rect x="20" y="379" width="968" height="81" fill="#fbebe0" stroke="#ffffff" stroke-width="2"/>
<text x="28" y="423.5" font-family="Helvetica, Arial, sans-serif" font-size="11" text-anchor="start" font-weight="bold" fill="#c0662b">Objective</text>
<rect x="20" y="460" width="968" height="54" fill="#efe8f6" stroke="#ffffff" stroke-width="2"/>
<text x="28" y="491.0" font-family="Helvetica, Arial, sans-serif" font-size="11" text-anchor="start" font-weight="bold" fill="#6f4fa3">Time</text>
<rect x="20" y="514" width="968" height="27" fill="#f3f3f3" stroke="#ffffff" stroke-width="2"/>
<text x="28" y="531.5" font-family="Helvetica, Arial, sans-serif" font-size="11" text-anchor="start" font-weight="bold" fill="#666666">Control</text>
<rect x="20" y="541" width="968" height="27" fill="#e5f3f3" stroke="#ffffff" stroke-width="2"/>
<text x="28" y="558.5" font-family="Helvetica, Arial, sans-serif" font-size="11" text-anchor="start" font-weight="bold" fill="#2d7f80">Use</text>
<text x="100" y="207.5" font-family="Helvetica, Arial, sans-serif" font-size="12" text-anchor="start" font-weight="normal" fill="#222">data distribution P<tspan baseline-shift="sub" font-size="75%">X</tspan></text>
<text x="100" y="234.5" font-family="Helvetica, Arial, sans-serif" font-size="12" text-anchor="start" font-weight="normal" fill="#222">relation G (Ā, 𝒯)</text>
<text x="100" y="261.5" font-family="Helvetica, Arial, sans-serif" font-size="12" text-anchor="start" font-weight="normal" fill="#222">parameters θ</text>
<text x="100" y="288.5" font-family="Helvetica, Arial, sans-serif" font-size="12" text-anchor="start" font-weight="normal" fill="#222">representation h</text>
<text x="100" y="315.5" font-family="Helvetica, Arial, sans-serif" font-size="12" text-anchor="start" font-weight="normal" fill="#222">embedding z</text>
<text x="100" y="342.5" font-family="Helvetica, Arial, sans-serif" font-size="12" text-anchor="start" font-weight="normal" fill="#222">batch Z (Gram, covariance)</text>
<text x="100" y="369.5" font-family="Helvetica, Arial, sans-serif" font-size="12" text-anchor="start" font-weight="normal" fill="#222">embedding distribution p<tspan baseline-shift="sub" font-size="75%">z</tspan></text>
<text x="100" y="396.5" font-family="Helvetica, Arial, sans-serif" font-size="12" text-anchor="start" font-weight="normal" fill="#222">order 0: value, minimizers</text>
<text x="100" y="423.5" font-family="Helvetica, Arial, sans-serif" font-size="12" text-anchor="start" font-weight="normal" fill="#222">order 1: drift −∇<tspan baseline-shift="sub" font-size="75%">z</tspan>L</text>
<text x="100" y="450.5" font-family="Helvetica, Arial, sans-serif" font-size="12" text-anchor="start" font-weight="normal" fill="#222">order 2: curvature</text>
<text x="100" y="477.5" font-family="Helvetica, Arial, sans-serif" font-size="12" text-anchor="start" font-weight="normal" fill="#222">embedding flow (ODE, PDE)</text>
<text x="100" y="504.5" font-family="Helvetica, Arial, sans-serif" font-size="12" text-anchor="start" font-weight="normal" fill="#222">parameter flow (SGD, Θ)</text>
<text x="100" y="531.5" font-family="Helvetica, Arial, sans-serif" font-size="12" text-anchor="start" font-weight="normal" fill="#222">control: τ, stop-gradient, EMA</text>
<text x="100" y="558.5" font-family="Helvetica, Arial, sans-serif" font-size="12" text-anchor="start" font-weight="normal" fill="#222">task family ℱ (probe, η)</text>
<text x="272" y="22" font-family="Helvetica, Arial, sans-serif" font-size="12" text-anchor="start" font-weight="bold" fill="#444">loss and its limit</text>
<text x="290.0" y="182" font-family="Helvetica, Arial, sans-serif" font-size="11.5" text-anchor="start" font-weight="normal" fill="#222" transform="rotate(-60 290.0 182)">Wang-Isola (4.2-4.4)</text>
<circle cx="286.0" cy="230.5" r="5" fill="#fff" stroke="#3d6ea8" stroke-width="1.8"/>
<circle cx="286.0" cy="257.5" r="5" fill="#fff" stroke="#3d6ea8" stroke-width="1.8"/>
<circle cx="286.0" cy="338.5" r="5" fill="#fff" stroke="#3d6ea8" stroke-width="1.8"/>
<circle cx="280.5" cy="365.5" r="5.5" fill="#222"/>
<path d="M291.5,359.0 L298.0,365.5 L291.5,372.0 L285.0,365.5 z" fill="#c0662b"/>
<circle cx="286.0" cy="392.5" r="5.5" fill="#222"/>
<text x="290.0" y="578" font-family="Helvetica, Arial, sans-serif" font-size="11" text-anchor="end" font-weight="bold" fill="#777777" transform="rotate(-60 290.0 578)">explanation, metric</text>
<text x="326.0" y="182" font-family="Helvetica, Arial, sans-serif" font-size="11.5" text-anchor="start" font-weight="normal" fill="#222" transform="rotate(-60 326.0 182)">first variation (4.16)</text>
<circle cx="322.0" cy="338.5" r="5" fill="#fff" stroke="#3d6ea8" stroke-width="1.8"/>
<path d="M322.0,359.0 L328.5,365.5 L322.0,372.0 L315.5,365.5 z" fill="#c0662b"/>
<circle cx="322.0" cy="419.5" r="5.5" fill="#222"/>
<text x="326.0" y="578" font-family="Helvetica, Arial, sans-serif" font-size="11" text-anchor="end" font-weight="bold" fill="#777777" transform="rotate(-60 326.0 578)">correction</text>
<text x="362.0" y="182" font-family="Helvetica, Arial, sans-serif" font-size="11.5" text-anchor="start" font-weight="normal" fill="#222" transform="rotate(-60 362.0 182)">Wang-Liu (3.2)</text>
<circle cx="358.0" cy="338.5" r="5.5" fill="#222"/>
<circle cx="358.0" cy="419.5" r="5.5" fill="#222"/>
<path d="M358.0,521.0 L364.5,527.5 L358.0,534.0 L351.5,527.5 z" fill="#c0662b"/>
<text x="362.0" y="578" font-family="Helvetica, Arial, sans-serif" font-size="11" text-anchor="end" font-weight="bold" fill="#777777" transform="rotate(-60 362.0 578)">explanation</text>
<text x="398.0" y="182" font-family="Helvetica, Arial, sans-serif" font-size="11.5" text-anchor="start" font-weight="normal" fill="#222" transform="rotate(-60 398.0 182)">collapse saddle (3.1)</text>
<circle cx="394.0" cy="257.5" r="5" fill="#fff" stroke="#3d6ea8" stroke-width="1.8"/>
<path d="M394.0,332.0 L400.5,338.5 L394.0,345.0 L387.5,338.5 z" fill="#c0662b"/>
<circle cx="394.0" cy="446.5" r="5.5" fill="#222"/>
<text x="398.0" y="578" font-family="Helvetica, Arial, sans-serif" font-size="11" text-anchor="end" font-weight="bold" fill="#777777" transform="rotate(-60 398.0 578)">explanation</text>
<text x="434.0" y="182" font-family="Helvetica, Arial, sans-serif" font-size="11.5" text-anchor="start" font-weight="normal" fill="#222" transform="rotate(-60 434.0 182)">Zimmermann (4.9)</text>
<circle cx="430.0" cy="203.5" r="5" fill="#fff" stroke="#3d6ea8" stroke-width="1.8"/>
<circle cx="430.0" cy="230.5" r="5" fill="#fff" stroke="#3d6ea8" stroke-width="1.8"/>
<circle cx="424.5" cy="311.5" r="5.5" fill="#222"/>
<path d="M435.5,305.0 L442.0,311.5 L435.5,318.0 L429.0,311.5 z" fill="#c0662b"/>
<circle cx="430.0" cy="365.5" r="5" fill="#fff" stroke="#3d6ea8" stroke-width="1.8"/>
<circle cx="430.0" cy="392.5" r="5.5" fill="#222"/>
<text x="434.0" y="578" font-family="Helvetica, Arial, sans-serif" font-size="11" text-anchor="end" font-weight="bold" fill="#b8651c" transform="rotate(-60 434.0 578)">identifiability</text>
<line x1="448" y1="40" x2="448" y2="718" stroke="#999" stroke-width="1" stroke-dasharray="3 3"/>
<text x="452" y="22" font-family="Helvetica, Arial, sans-serif" font-size="12" text-anchor="start" font-weight="bold" fill="#444">training</text>
<text x="470.0" y="182" font-family="Helvetica, Arial, sans-serif" font-size="11.5" text-anchor="start" font-weight="normal" fill="#222" transform="rotate(-60 470.0 182)">network flow (4.1)</text>
<path d="M466.0,251.0 L472.5,257.5 L466.0,264.0 L459.5,257.5 z" fill="#c0662b"/>
<path d="M466.0,332.0 L472.5,338.5 L466.0,345.0 L459.5,338.5 z" fill="#c0662b"/>
<circle cx="466.0" cy="473.5" r="5.5" fill="#222"/>
<circle cx="466.0" cy="500.5" r="5.5" fill="#222"/>
<text x="470.0" y="578" font-family="Helvetica, Arial, sans-serif" font-size="11" text-anchor="end" font-weight="bold" fill="#777777" transform="rotate(-60 470.0 578)">exact bridge</text>
<text x="506.0" y="182" font-family="Helvetica, Arial, sans-serif" font-size="11.5" text-anchor="start" font-weight="normal" fill="#222" transform="rotate(-60 506.0 182)">linear dynamics</text>
<circle cx="502.0" cy="203.5" r="5" fill="#fff" stroke="#3d6ea8" stroke-width="1.8"/>
<circle cx="502.0" cy="230.5" r="5" fill="#fff" stroke="#3d6ea8" stroke-width="1.8"/>
<circle cx="502.0" cy="257.5" r="5" fill="#fff" stroke="#3d6ea8" stroke-width="1.8"/>
<circle cx="502.0" cy="338.5" r="5.5" fill="#222"/>
<circle cx="496.5" cy="500.5" r="5.5" fill="#222"/>
<path d="M507.5,494.0 L514.0,500.5 L507.5,507.0 L501.0,500.5 z" fill="#c0662b"/>
<circle cx="502.0" cy="527.5" r="5.5" fill="#222"/>
<text x="506.0" y="578" font-family="Helvetica, Arial, sans-serif" font-size="11" text-anchor="end" font-weight="bold" fill="#2f7d3a" transform="rotate(-60 506.0 578)">DirectPred</text>
<text x="542.0" y="182" font-family="Helvetica, Arial, sans-serif" font-size="11.5" text-anchor="start" font-weight="normal" fill="#222" transform="rotate(-60 542.0 182)">PPS (4.11-4.13)</text>
<circle cx="538.0" cy="257.5" r="5" fill="#fff" stroke="#3d6ea8" stroke-width="1.8"/>
<circle cx="532.5" cy="338.5" r="5.5" fill="#222"/>
<path d="M543.5,332.0 L550.0,338.5 L543.5,345.0 L537.0,338.5 z" fill="#c0662b"/>
<circle cx="538.0" cy="419.5" r="5" fill="#fff" stroke="#3d6ea8" stroke-width="1.8"/>
<circle cx="538.0" cy="473.5" r="5.5" fill="#222"/>
<path d="M538.0,521.0 L544.5,527.5 L538.0,534.0 L531.5,527.5 z" fill="#c0662b"/>
<text x="542.0" y="578" font-family="Helvetica, Arial, sans-serif" font-size="11" text-anchor="end" font-weight="bold" fill="#2f7d3a" transform="rotate(-60 542.0 578)">τ rule</text>
<text x="578.0" y="182" font-family="Helvetica, Arial, sans-serif" font-size="11.5" text-anchor="start" font-weight="normal" fill="#222" transform="rotate(-60 578.0 182)">Gretton et al. (4.17)</text>
<circle cx="574.0" cy="203.5" r="5" fill="#fff" stroke="#3d6ea8" stroke-width="1.8"/>
<path d="M574.0,251.0 L580.5,257.5 L574.0,264.0 L567.5,257.5 z" fill="#c0662b"/>
<path d="M574.0,359.0 L580.5,365.5 L574.0,372.0 L567.5,365.5 z" fill="#c0662b"/>
<circle cx="574.0" cy="419.5" r="5.5" fill="#222"/>
<circle cx="574.0" cy="473.5" r="5.5" fill="#222"/>
<circle cx="574.0" cy="527.5" r="5" fill="#fff" stroke="#3d6ea8" stroke-width="1.8"/>
<text x="578.0" y="578" font-family="Helvetica, Arial, sans-serif" font-size="11" text-anchor="end" font-weight="bold" fill="#777777" transform="rotate(-60 578.0 578)">correction</text>
<text x="614.0" y="182" font-family="Helvetica, Arial, sans-serif" font-size="11.5" text-anchor="start" font-weight="normal" fill="#222" transform="rotate(-60 614.0 182)">score matching (4.14-4.15)</text>
<circle cx="610.0" cy="203.5" r="5" fill="#fff" stroke="#3d6ea8" stroke-width="1.8"/>
<path d="M610.0,251.0 L616.5,257.5 L610.0,264.0 L603.5,257.5 z" fill="#c0662b"/>
<circle cx="610.0" cy="419.5" r="5.5" fill="#222"/>
<text x="614.0" y="578" font-family="Helvetica, Arial, sans-serif" font-size="11" text-anchor="end" font-weight="bold" fill="#2f7d3a" transform="rotate(-60 614.0 578)">loss without density</text>
<line x1="628" y1="40" x2="628" y2="718" stroke="#999" stroke-width="1" stroke-dasharray="3 3"/>
<text x="632" y="22" font-family="Helvetica, Arial, sans-serif" font-size="12" text-anchor="start" font-weight="bold" fill="#444">tasks</text>
<text x="650.0" y="182" font-family="Helvetica, Arial, sans-serif" font-size="11.5" text-anchor="start" font-weight="normal" fill="#222" transform="rotate(-60 650.0 182)">Saunshi (4.5)</text>
<circle cx="646.0" cy="203.5" r="5" fill="#fff" stroke="#3d6ea8" stroke-width="1.8"/>
<circle cx="646.0" cy="230.5" r="5" fill="#fff" stroke="#3d6ea8" stroke-width="1.8"/>
<path d="M646.0,305.0 L652.5,311.5 L646.0,318.0 L639.5,311.5 z" fill="#c0662b"/>
<circle cx="646.0" cy="392.5" r="5.5" fill="#222"/>
<circle cx="646.0" cy="554.5" r="5.5" fill="#222"/>
<text x="650.0" y="578" font-family="Helvetica, Arial, sans-serif" font-size="11" text-anchor="end" font-weight="bold" fill="#b8651c" transform="rotate(-60 650.0 578)">bound</text>
<text x="686.0" y="182" font-family="Helvetica, Arial, sans-serif" font-size="11.5" text-anchor="start" font-weight="normal" fill="#222" transform="rotate(-60 686.0 182)">HaoChen (4.6)</text>
<circle cx="682.0" cy="230.5" r="5" fill="#fff" stroke="#3d6ea8" stroke-width="1.8"/>
<circle cx="682.0" cy="257.5" r="5" fill="#fff" stroke="#3d6ea8" stroke-width="1.8"/>
<path d="M682.0,305.0 L688.5,311.5 L682.0,318.0 L675.5,311.5 z" fill="#c0662b"/>
<circle cx="682.0" cy="365.5" r="5" fill="#fff" stroke="#3d6ea8" stroke-width="1.8"/>
<circle cx="682.0" cy="392.5" r="5.5" fill="#222"/>
<circle cx="682.0" cy="554.5" r="5.5" fill="#222"/>
<text x="686.0" y="578" font-family="Helvetica, Arial, sans-serif" font-size="11" text-anchor="end" font-weight="bold" fill="#b8651c" transform="rotate(-60 686.0 578)">bound</text>
<text x="722.0" y="182" font-family="Helvetica, Arial, sans-serif" font-size="11.5" text-anchor="start" font-weight="normal" fill="#222" transform="rotate(-60 722.0 182)">two-view operator (4.7)</text>
<circle cx="718.0" cy="230.5" r="5" fill="#fff" stroke="#3d6ea8" stroke-width="1.8"/>
<circle cx="718.0" cy="257.5" r="5" fill="#fff" stroke="#3d6ea8" stroke-width="1.8"/>
<path d="M718.0,305.0 L724.5,311.5 L718.0,318.0 L711.5,311.5 z" fill="#c0662b"/>
<circle cx="718.0" cy="365.5" r="5" fill="#fff" stroke="#3d6ea8" stroke-width="1.8"/>
<circle cx="718.0" cy="392.5" r="5.5" fill="#222"/>
<circle cx="718.0" cy="554.5" r="5.5" fill="#222"/>
<text x="722.0" y="578" font-family="Helvetica, Arial, sans-serif" font-size="11" text-anchor="end" font-weight="bold" fill="#2f6fa8" transform="rotate(-60 722.0 578)">bound, B(F) estimate</text>
<text x="758.0" y="182" font-family="Helvetica, Arial, sans-serif" font-size="11.5" text-anchor="start" font-weight="normal" fill="#222" transform="rotate(-60 758.0 182)">NSCL (4.8)</text>
<circle cx="754.0" cy="257.5" r="5" fill="#fff" stroke="#3d6ea8" stroke-width="1.8"/>
<path d="M754.0,305.0 L760.5,311.5 L754.0,318.0 L747.5,311.5 z" fill="#c0662b"/>
<circle cx="754.0" cy="392.5" r="5.5" fill="#222"/>
<circle cx="748.5" cy="554.5" r="5.5" fill="#222"/>
<circle cx="759.5" cy="554.5" r="5" fill="#fff" stroke="#3d6ea8" stroke-width="1.8"/>
<text x="758.0" y="578" font-family="Helvetica, Arial, sans-serif" font-size="11" text-anchor="end" font-weight="bold" fill="#b8651c" transform="rotate(-60 758.0 578)">bound</text>
<text x="794.0" y="182" font-family="Helvetica, Arial, sans-serif" font-size="11.5" text-anchor="start" font-weight="normal" fill="#222" transform="rotate(-60 794.0 182)">directional CDNV</text>
<circle cx="790.0" cy="203.5" r="5" fill="#fff" stroke="#3d6ea8" stroke-width="1.8"/>
<path d="M790.0,278.0 L796.5,284.5 L790.0,291.0 L783.5,284.5 z" fill="#c0662b"/>
<circle cx="790.0" cy="554.5" r="5.5" fill="#222"/>
<text x="794.0" y="578" font-family="Helvetica, Arial, sans-serif" font-size="11" text-anchor="end" font-weight="bold" fill="#2f6fa8" transform="rotate(-60 794.0 578)">bound, Ṽ estimate</text>
<text x="830.0" y="182" font-family="Helvetica, Arial, sans-serif" font-size="11.5" text-anchor="start" font-weight="normal" fill="#222" transform="rotate(-60 830.0 182)">LeJEPA, SPHERE-JEPA</text>
<circle cx="820.5" cy="365.5" r="5.5" fill="#222"/>
<path d="M831.5,359.0 L838.0,365.5 L831.5,372.0 L825.0,365.5 z" fill="#c0662b"/>
<circle cx="820.5" cy="554.5" r="5.5" fill="#222"/>
<circle cx="831.5" cy="554.5" r="5" fill="#fff" stroke="#3d6ea8" stroke-width="1.8"/>
<text x="830.0" y="578" font-family="Helvetica, Arial, sans-serif" font-size="11" text-anchor="end" font-weight="bold" fill="#2f7d3a" transform="rotate(-60 830.0 578)">target distribution</text>
<text x="866.0" y="182" font-family="Helvetica, Arial, sans-serif" font-size="11.5" text-anchor="start" font-weight="normal" fill="#222" transform="rotate(-60 866.0 182)">InfoMin (6.3)</text>
<circle cx="856.5" cy="230.5" r="5.5" fill="#222"/>
<path d="M867.5,224.0 L874.0,230.5 L867.5,237.0 L861.0,230.5 z" fill="#c0662b"/>
<circle cx="862.0" cy="554.5" r="5" fill="#fff" stroke="#3d6ea8" stroke-width="1.8"/>
<text x="866.0" y="578" font-family="Helvetica, Arial, sans-serif" font-size="11" text-anchor="end" font-weight="bold" fill="#777777" transform="rotate(-60 866.0 578)">principle, needs y</text>
<line x1="880" y1="40" x2="880" y2="718" stroke="#999" stroke-width="1" stroke-dasharray="3 3"/>
<text x="884" y="22" font-family="Helvetica, Arial, sans-serif" font-size="12" text-anchor="start" font-weight="bold" fill="#444">instruments</text>
<text x="902.0" y="182" font-family="Helvetica, Arial, sans-serif" font-size="11.5" text-anchor="start" font-weight="normal" fill="#222" transform="rotate(-60 902.0 182)">RankMe</text>
<circle cx="898.0" cy="338.5" r="5.5" fill="#222"/>
<text x="902.0" y="578" font-family="Helvetica, Arial, sans-serif" font-size="11" text-anchor="end" font-weight="bold" fill="#2f6fa8" transform="rotate(-60 902.0 578)">measure</text>
<text x="938.0" y="182" font-family="Helvetica, Arial, sans-serif" font-size="11.5" text-anchor="start" font-weight="normal" fill="#222" transform="rotate(-60 938.0 182)">Fang uniformity</text>
<circle cx="934.0" cy="338.5" r="5.5" fill="#222"/>
<text x="938.0" y="578" font-family="Helvetica, Arial, sans-serif" font-size="11" text-anchor="end" font-weight="bold" fill="#2f6fa8" transform="rotate(-60 938.0 578)">measure</text>
<text x="974.0" y="182" font-family="Helvetica, Arial, sans-serif" font-size="11.5" text-anchor="start" font-weight="normal" fill="#222" transform="rotate(-60 974.0 182)">drift monitor (2.5)</text>
<circle cx="970.0" cy="338.5" r="5.5" fill="#222"/>
<circle cx="970.0" cy="419.5" r="5.5" fill="#222"/>
<text x="974.0" y="578" font-family="Helvetica, Arial, sans-serif" font-size="11" text-anchor="end" font-weight="bold" fill="#2f6fa8" transform="rotate(-60 974.0 578)">measure, untested</text>
<line x1="96" y1="190" x2="988" y2="190" stroke="#ffffff" stroke-width="1"/>
<line x1="96" y1="217" x2="988" y2="217" stroke="#ffffff" stroke-width="1"/>
<line x1="96" y1="244" x2="988" y2="244" stroke="#ffffff" stroke-width="1"/>
<line x1="96" y1="271" x2="988" y2="271" stroke="#ffffff" stroke-width="1"/>
<line x1="96" y1="298" x2="988" y2="298" stroke="#ffffff" stroke-width="1"/>
<line x1="96" y1="325" x2="988" y2="325" stroke="#ffffff" stroke-width="1"/>
<line x1="96" y1="352" x2="988" y2="352" stroke="#ffffff" stroke-width="1"/>
<line x1="96" y1="379" x2="988" y2="379" stroke="#ffffff" stroke-width="1"/>
<line x1="96" y1="406" x2="988" y2="406" stroke="#ffffff" stroke-width="1"/>
<line x1="96" y1="433" x2="988" y2="433" stroke="#ffffff" stroke-width="1"/>
<line x1="96" y1="460" x2="988" y2="460" stroke="#ffffff" stroke-width="1"/>
<line x1="96" y1="487" x2="988" y2="487" stroke="#ffffff" stroke-width="1"/>
<line x1="96" y1="514" x2="988" y2="514" stroke="#ffffff" stroke-width="1"/>
<line x1="96" y1="541" x2="988" y2="541" stroke="#ffffff" stroke-width="1"/>
<line x1="96" y1="568" x2="988" y2="568" stroke="#ffffff" stroke-width="1"/>
<circle cx="30.0" cy="715" r="5.5" fill="#222"/>
<text x="42" y="719" font-family="Helvetica, Arial, sans-serif" font-size="12" text-anchor="start" font-weight="normal" fill="#222">concludes about this level</text>
<path d="M230.0,708.5 L236.5,715 L230.0,721.5 L223.5,715 z" fill="#c0662b"/>
<text x="242" y="719" font-family="Helvetica, Arial, sans-serif" font-size="12" text-anchor="start" font-weight="normal" fill="#222">moves it (free variable)</text>
<circle cx="412.0" cy="715" r="5" fill="#fff" stroke="#3d6ea8" stroke-width="1.8"/>
<text x="424" y="719" font-family="Helvetica, Arial, sans-serif" font-size="12" text-anchor="start" font-weight="normal" fill="#222">assumes or idealizes it</text>
<text x="600" y="719" font-family="Helvetica, Arial, sans-serif" font-size="12" text-anchor="start" font-weight="normal" fill="#666">blank: says nothing</text>
<rect x="30" y="731" width="12" height="12" fill="#2f7d3a"/>
<text x="47" y="741" font-family="Helvetica, Arial, sans-serif" font-size="12" text-anchor="start" font-weight="normal" fill="#222">changes training</text>
<rect x="178.6" y="731" width="12" height="12" fill="#2f6fa8"/>
<text x="195.6" y="741" font-family="Helvetica, Arial, sans-serif" font-size="12" text-anchor="start" font-weight="normal" fill="#222">computable on a trained network</text>
<rect x="426.2" y="731" width="12" height="12" fill="#b8651c"/>
<text x="443.2" y="741" font-family="Helvetica, Arial, sans-serif" font-size="12" text-anchor="start" font-weight="normal" fill="#222">holds under its assumptions</text>
<rect x="647.4" y="731" width="12" height="12" fill="#777777"/>
<text x="664.4" y="741" font-family="Helvetica, Arial, sans-serif" font-size="12" text-anchor="start" font-weight="normal" fill="#222">explains or corrects</text>
</svg>
